<svg id="Layer_2" data-name="Layer 2" xmlns="http://www.w3.org/2000/svg" viewBox="0 0 765.25 149.84"><defs><style>.cls-1{fill:#638b33;}.cls-2{fill:#eb9257;}.cls-3{isolation:isolate;font-size:92px;font-family:JimmySans, JimmySans;}</style></defs><title>cacamping</title><g id="_title_" data-name="&lt;title&gt;"><g id="_Group_" data-name=" Group "><path id="_Path_" data-name=" Path " class="cls-1" d="M382.23,120.31a454.13,454.13,0,0,0,69.44,9.77,226.79,226.79,0,0,1-87.32-28c-5.78-3.27-11.54-6.85-18.1-8.07l14.62,17.89a.4.4,0,0,1,0,.55.39.39,0,0,1-.55,0h0L330,82.82c-4.54-4.45-11-9.34-16.78-3.25a14,14,0,0,0-1.54,2.06q-6.17,9.53-13.23,18.46c-.82,1-1.81,2.14-3.13,2.19s-2.31-.87-3.21-1.73a81.53,81.53,0,0,0-18-12.57c-3.42-1.76-7.54-3.28-11-1.6-1.85.9-9.78,9.23-11.2,10.72-22.07,23.29-63.14,44.7-100.31,53.85,27.89-.77,54.8-10.52,80-22.56,13.44-6.42,28.84-13.66,42.53-7.79,10.24,4.4,17.41,15.55,27.84,18.21a1.53,1.53,0,0,0,1.89-1.07,1.57,1.57,0,0,0-.16-1.2c-3.08-5.25-8.3-10.13-5.69-15.38a7.72,7.72,0,0,1,6.55-4.1c6.3-.37,11.09,3.73,16.77,5.21,4.18,1.09,9.49.15,11.3-3.78.56-1.21.72-2.59,1.36-3.77,1.34-2.43,4.5-3.37,7.26-3s5.2,1.88,7.6,3.28a195.64,195.64,0,0,0,46.25,19.45A52.17,52.17,0,0,1,382.23,120.31Z" transform="translate(-48.98 -17.7)"/><g id="_Group_2" data-name=" Group 2"><path id="_Path_2" data-name=" Path 2" class="cls-2" d="M389.46,99a88.07,88.07,0,0,0-175.88,6.84c0,1.59,0,3.16.13,4.73C228.84,101.92,242.23,92,252,81.78c1.42-1.49,9.35-9.81,11.2-10.71,3.45-1.69,7.58-.17,11,1.6a81.53,81.53,0,0,1,18,12.57c.91.85,2,1.78,3.21,1.73s2.31-1.16,3.12-2.19q7.13-9,13.33-18.58a12.28,12.28,0,0,1,1.54-2c5.77-6,12.19-1.12,16.72,3.31l.1.1a62,62,0,0,0,21.69,13.69,100.68,100.68,0,0,1,12.52,5.46A225.34,225.34,0,0,0,389.46,99Z" transform="translate(-48.98 -17.7)"/></g></g></g><text class="cls-3" transform="translate(0 109.73)"><tspan xml:space="preserve">CA             Camping</tspan></text></svg>