<svg id="Layer_2" data-name="Layer 2" xmlns="http://www.w3.org/2000/svg" viewBox="0 0 981.17 133.25"><defs><style>.cls-1{fill:#638b33;}.cls-2{fill:#eb9257;}</style></defs><title>logo</title><g id="_title_" data-name="&lt;title&gt;"><g id="_Group_" data-name=" Group "><path id="_Path_" data-name=" Path " class="cls-1" d="M382.23,120.31a454.13,454.13,0,0,0,69.44,9.77,226.79,226.79,0,0,1-87.32-28c-5.78-3.27-11.54-6.85-18.1-8.07l14.62,17.89a.4.4,0,0,1,0,.55.39.39,0,0,1-.55,0h0L330,82.82c-4.54-4.45-11-9.34-16.78-3.25a14,14,0,0,0-1.54,2.06q-6.17,9.53-13.23,18.46c-.82,1-1.81,2.14-3.13,2.19s-2.31-.87-3.21-1.73a81.53,81.53,0,0,0-18-12.57c-3.42-1.76-7.54-3.28-11-1.6-1.85.9-9.78,9.23-11.2,10.72-22.07,23.29-63.14,44.7-100.31,53.85,27.89-.77,54.8-10.52,80-22.56,13.44-6.42,28.84-13.66,42.53-7.79,10.24,4.4,17.41,15.55,27.84,18.21a1.53,1.53,0,0,0,1.89-1.07,1.57,1.57,0,0,0-.16-1.2c-3.08-5.25-8.3-10.13-5.69-15.38a7.72,7.72,0,0,1,6.55-4.1c6.3-.37,11.09,3.73,16.77,5.21,4.18,1.09,9.49.15,11.3-3.78.56-1.21.72-2.59,1.36-3.77,1.34-2.43,4.5-3.37,7.26-3s5.2,1.88,7.6,3.28a195.64,195.64,0,0,0,46.25,19.45A52.17,52.17,0,0,1,382.23,120.31Z" transform="translate(-28.04 -17.7)"/><g id="_Group_2" data-name=" Group 2"><path id="_Path_2" data-name=" Path 2" class="cls-2" d="M389.46,99a88.07,88.07,0,0,0-175.88,6.84c0,1.59,0,3.16.13,4.73C228.84,101.92,242.23,92,252,81.78c1.42-1.49,9.35-9.81,11.2-10.71,3.45-1.69,7.58-.17,11,1.6a81.53,81.53,0,0,1,18,12.57c.91.85,2,1.78,3.21,1.73s2.31-1.16,3.12-2.19q7.13-9,13.33-18.58a12.28,12.28,0,0,1,1.54-2c5.77-6,12.19-1.12,16.72,3.31l.1.1a62,62,0,0,0,21.69,13.69,100.68,100.68,0,0,1,12.52,5.46A225.34,225.34,0,0,0,389.46,99Z" transform="translate(-28.04 -17.7)"/></g></g></g><path d="M31.88,111.29a30.83,30.83,0,0,1-3.69-18.08,73.25,73.25,0,0,1,4.64-18.93,37.71,37.71,0,0,1,14-17.49c3.45-2.5,7.38-3.57,11.31-4.64,8.45-2.26,17.13-2.5,25.82-1.79a29.36,29.36,0,0,1,7.85,2,4.37,4.37,0,0,1,2.86,2.73c.36,1,.24,1.31-.83,3.69-.24.12-.48.36-.72.36-3-.48-6-.71-8.8-1.31C79.24,56.79,74,57,68.89,56.79a22.82,22.82,0,0,0-11.66,3.09A53.68,53.68,0,0,0,39.85,75.59a10.66,10.66,0,0,0-2,4.41c-.48,3-2,5.59-3.1,8.8a35.33,35.33,0,0,0,1.79,15.59c2.5,6.9,6.9,12.26,13.09,17.14a2,2,0,0,1,.83.47c5.12,2.74,10.71,3.57,16.42,3.81a99,99,0,0,0,20.71-1,5.48,5.48,0,0,1,3.57,4.52A3,3,0,0,1,89,131.52c-5.36,1.43-10.59,2.62-16.07,1.31-2.5-.59-4.88-.12-7.26.24-7.73-1.07-14.51-4.28-21.06-8.33A36.25,36.25,0,0,1,31.88,111.29Z" transform="translate(-28.04 -17.7)"/><path d="M107.32,135.09a5.79,5.79,0,0,1-.47-1.54c1-4.17,3-8.09,4.64-12,5.11-11.43,9.88-22.85,14.16-34.63.83-2.26,1.78-4.52,2.74-6.78,1.19-3,2.5-6,3.8-8.93A40.62,40.62,0,0,1,134.46,66a78,78,0,0,0,6.3-14,3.86,3.86,0,0,1,2.5-2.38c.48.36,1.55.48,1.79,1.07a29.54,29.54,0,0,1,2.5,5.12,111.59,111.59,0,0,0,8.68,20.11c2.86,5.36,5,10.83,7.38,16.3,3,6.79,6.19,13.33,9.16,20,2.86,6.18,5.48,12.37,8.1,18.68a5.13,5.13,0,0,1,.71,2.26,4.07,4.07,0,0,1-.24,2.38c-.35.6-1.19.83-1.78,1.19-2.38-.83-3.57-2.62-4.64-4.52-1.67-3.1-3.1-6.31-4.76-9.52-1.19-2-1.67-4.52-3.69-6.43a5.65,5.65,0,0,0-2.14-.59c-3,.12-6,.35-8.93.59-5.12.36-10.23,1-15.35,1.19-3,.12-6,0-8.93,0l-9-.35a4.09,4.09,0,0,0-3.1,1.19c-1.9,2.38-2.49,5.71-3.92,8.56-1.19,2.5-2.26,5-3.45,7.38a7.81,7.81,0,0,1-1.67,1.79c-.36.59-1.43.47-2.14-.24A2.62,2.62,0,0,1,107.32,135.09ZM123,108.2c.48.83.83,1.55,1.19,2.14,3.33.6,6.55,1.19,9.76,1.55a19.54,19.54,0,0,0,6.43,0c5.35-1.19,10.82-1.07,16.18-1.19,1.67,0,3.21-.24,4.76-.36.6-.83,1.07-1.55,1.55-2.26a35.35,35.35,0,0,0-3.57-9c-4.88-8.57-8.1-17.73-11.19-27-.48-1.54-.95-3.09-1.55-4.64a6.53,6.53,0,0,0-1.31-1.9c-.59-.72-2.49-.84-3-.12a13,13,0,0,0-1.9,2.62c-1.19,2.73-2.27,5.59-3.57,8.21-3.46,6.42-6,13.33-8.93,20C126.24,100.23,124.7,104.27,123,108.2Z" transform="translate(-28.04 -17.7)"/><path d="M435.52,111.29a31,31,0,0,1-3.69-18.08,73.66,73.66,0,0,1,4.64-18.93,37.73,37.73,0,0,1,14-17.49c3.45-2.5,7.37-3.57,11.3-4.64,8.45-2.26,17.14-2.5,25.82-1.79a29.53,29.53,0,0,1,7.86,2,4.33,4.33,0,0,1,2.85,2.73c.36,1,.24,1.31-.83,3.69-.24.12-.47.36-.71.36-3-.48-5.95-.71-8.81-1.31-5.12-1.07-10.35-.83-15.47-1.07a22.85,22.85,0,0,0-11.66,3.09,53.78,53.78,0,0,0-17.38,15.71,10.66,10.66,0,0,0-2,4.41c-.47,3-2,5.59-3.09,8.8a35.32,35.32,0,0,0,1.78,15.59c2.5,6.9,6.9,12.26,13.09,17.14a1.92,1.92,0,0,1,.83.47c5.12,2.74,10.72,3.57,16.43,3.81a98.93,98.93,0,0,0,20.7-1,5.46,5.46,0,0,1,3.57,4.52,3,3,0,0,1-2.14,2.14c-5.35,1.43-10.59,2.62-16.06,1.31-2.5-.59-4.88-.12-7.26.24-7.74-1.07-14.52-4.28-21.07-8.33A36.33,36.33,0,0,1,435.52,111.29Z" transform="translate(-28.04 -17.7)"/><path d="M511,135.09a5.79,5.79,0,0,1-.48-1.54c.95-4.17,3-8.09,4.64-12,5.12-11.43,9.88-22.85,14.16-34.63.84-2.26,1.79-4.52,2.74-6.78,1.19-3,2.5-6,3.81-8.93A40.57,40.57,0,0,1,538.1,66a78.07,78.07,0,0,0,6.31-14,3.84,3.84,0,0,1,2.5-2.38c.47.36,1.54.48,1.78,1.07a29.54,29.54,0,0,1,2.5,5.12,111.63,111.63,0,0,0,8.69,20.11c2.85,5.36,5,10.83,7.37,16.3,3,6.79,6.19,13.33,9.17,20,2.85,6.18,5.47,12.37,8.09,18.68a5,5,0,0,1,.71,2.26,4.15,4.15,0,0,1-.23,2.38c-.36.6-1.19.83-1.79,1.19-2.38-.83-3.57-2.62-4.64-4.52-1.67-3.1-3.09-6.31-4.76-9.52-1.19-2-1.67-4.52-3.69-6.43a5.6,5.6,0,0,0-2.14-.59c-3,.12-6,.35-8.93.59-5.11.36-10.23,1-15.35,1.19-3,.12-6,0-8.92,0l-9-.35a4.06,4.06,0,0,0-3.09,1.19c-1.91,2.38-2.5,5.71-3.93,8.56-1.19,2.5-2.26,5-3.45,7.38a7.81,7.81,0,0,1-1.67,1.79c-.35.59-1.42.47-2.14-.24A2.36,2.36,0,0,1,511,135.09Zm15.7-26.89c.48.83.84,1.55,1.19,2.14,3.34.6,6.55,1.19,9.76,1.55a19.54,19.54,0,0,0,6.43,0c5.35-1.19,10.83-1.07,16.18-1.19,1.67,0,3.22-.24,4.76-.36.6-.83,1.07-1.55,1.55-2.26A34.64,34.64,0,0,0,563,99c-4.88-8.57-8.09-17.73-11.19-27-.47-1.54-.95-3.09-1.54-4.64a6.94,6.94,0,0,0-1.31-1.9c-.6-.72-2.5-.84-3-.12a13.35,13.35,0,0,0-1.9,2.62c-1.19,2.73-2.26,5.59-3.57,8.21-3.45,6.42-6,13.33-8.93,20C529.89,100.23,528.34,104.27,526.67,108.2Z" transform="translate(-28.04 -17.7)"/><path d="M597.24,130.93c.71-4.76,1.43-9.64,1.9-14.52.6-6.43.12-13,1.67-19.4a15.48,15.48,0,0,0,.12-3.33c.12-7.62,1.55-15.11,2.86-22.61.83-5.12,2.14-10.11,2.61-15.23a7.28,7.28,0,0,1,1.19-3c.6-1,3.1-1.07,3.57-.12q2,3.23,3.57,6.43c1.55,3.21,3,6.43,4.41,9.64C621,73,623.06,77.14,625,81.42s3.81,9,6.07,13.33,4,8.33,5.83,12.62a38.75,38.75,0,0,0,2.5,5c.35.6,1.31,1,1.9,1.31a8.4,8.4,0,0,0,1.55-.83,33.06,33.06,0,0,0,3.81-5.24c3.8-7.26,7.26-14.51,11-21.89,2.38-4.88,4.64-9.76,7-14.64,2.49-5.12,5.59-10,7.85-15.23a2.61,2.61,0,0,1,1.31-1c.24.35.71.59,1,1a152.56,152.56,0,0,1,8.45,34.75c1.07,9.16,2.14,18.44,3.21,27.61.72,5.35,1.79,10.71,2.74,16.18a4.66,4.66,0,0,1-.71,1.19,7.38,7.38,0,0,1-5.48,1c-.47-.12-.83-.71-1.31-1.07a231.84,231.84,0,0,1-3.69-33.91A161.11,161.11,0,0,0,675.66,83c-.35-2.14-.71-4.28-1.19-6.43a9.11,9.11,0,0,0-1.07-2.14c-.59-.83-2.38-1-2.85-.12a148,148,0,0,0-9.76,16.07c-5.71,11.3-11.54,22.73-17.26,34.15-.83,1.43-1.66,2.86-2.5,4.17-.24.35-.95.35-1.66.71-1.55-4-3.1-8.09-4.88-12s-3.93-7.85-5.71-11.78c-1.79-3.69-3.57-7.38-5.24-11.07a66.81,66.81,0,0,1-2.38-6.9,45,45,0,0,0-6.43-12c-2.14-.24-3.09.24-3.33,1.43-1.66,8.57-3.45,17.14-3.45,25.82,0,5-1.19,9.76-2,14.52-.48,2.74-1.19,5.36-1.43,8-.12,2.26-1.07,4.16-1.9,6.42C600.21,132.12,598.55,132.59,597.24,130.93Z" transform="translate(-28.04 -17.7)"/><path d="M701.48,68.33a82.91,82.91,0,0,1-.11-16.3,3.92,3.92,0,0,1,2.49-3,42,42,0,0,1,5.6-.72c4.88,0,9.75.12,14.63.24A36.12,36.12,0,0,1,746.82,56c5.12,6.9,5.6,14.75,4.64,22.61a25.91,25.91,0,0,1-4.75,12,15.4,15.4,0,0,1-7.5,6c-1.31.47-2.62.95-3.93,1.31-10.23,2.85-10.23,2.85-22.37,3.21-1.43,0-2.74.12-4,.24a7.06,7.06,0,0,0-1.19,2.26c-.12,1.55,0,3.21-.12,4.88,0,7.49-.12,15.11-.12,22.73-.11,1.9-1.19,3-3.45,3.69a8.12,8.12,0,0,1-1.31-1.55c-.35-9.4-.35-18.8.12-28.32A221,221,0,0,0,701.48,68.33Zm6.19,23.45a2.9,2.9,0,0,0,2.62,2.61,99.56,99.56,0,0,0,17.85-.47,22.38,22.38,0,0,0,8.57-2.62c4.52-2.5,7.62-6.07,8.21-11.42a44,44,0,0,0-.24-13.69c-.47-.71-.95-1.43-1.43-2-3.57-4.88-8.33-7.5-14.16-8.93a67.12,67.12,0,0,0-19.39-1.31,8.17,8.17,0,0,0-1.67.36,3.74,3.74,0,0,0-1.9,2.5c-.12,1.31-.12,2.62-.12,4.05C705.65,71.19,707.55,81.42,707.67,91.78Z" transform="translate(-28.04 -17.7)"/><path d="M763.84,126.64c0-2,.83-3.57,3.33-4.4,1.79.6,3.81,1.19,5.83,1.79s4.17,1.54,6.07,2.26c5.48.59,10.95.24,16.07.12,4-1.79,4-1.79,5.83-4.76a17.6,17.6,0,0,1,.24-2.38c.59-5.83-1.79-10.59-5.36-15a32.31,32.31,0,0,0-9.4-7.61c-3-1.43-5.83-2.86-8.69-4.53a42.39,42.39,0,0,1-6.07-4c-5.23-4.52-6.9-10.24-5.83-16.9A46.66,46.66,0,0,1,770.5,58.1c2.26-4.64,6.19-6.78,11.19-6.78a25.12,25.12,0,0,1,7.26.59,51.87,51.87,0,0,0,10.35,1.43c2.86,1.31,5.6,2.5,8.33,3.69a2.48,2.48,0,0,1,1.31,1.9c.12.84-.12,1.07-1.66,2.5a87.7,87.7,0,0,1-17.38-3.57,23.77,23.77,0,0,0-5.59-1.19c-3.57-.36-6.31,1.31-8.45,3.93a13.13,13.13,0,0,0-1.55,2.85,31.11,31.11,0,0,0-2,13.57c.36,3,1.55,5.36,4.16,6.78,4.65,2.62,9.41,5.24,14.17,7.86a36.42,36.42,0,0,0,3.68,1.9c6.31,3,10,8.21,12.62,14.4,1.55,3.69,2,7.86,2.38,11.9a9,9,0,0,1-.6,3.1,15.78,15.78,0,0,1-6.54,8.09A23.44,23.44,0,0,1,789.07,135a73,73,0,0,1-19.16-3.45,35,35,0,0,1-3.69-1.78A3.45,3.45,0,0,1,763.84,126.64Z" transform="translate(-28.04 -17.7)"/><path d="M821.32,103.56c0-11.66-.12-23.33,0-35,0-4.88.47-9.76.83-14.64.12-1.42,1.43-2.26,3.57-2.14a30.58,30.58,0,0,1,1.9,11.78c-.23,7.14.24,14.16.48,21.19.12,1.66.24,3.21.24,4.87V129.5a22,22,0,0,1-.48,4.05,2,2,0,0,1-1.55,1.66,14.32,14.32,0,0,1-2.26.24,6.54,6.54,0,0,1-1.31-1.07,16.74,16.74,0,0,1-1.19-6.43C821.55,119.86,821.44,111.77,821.32,103.56Z" transform="translate(-28.04 -17.7)"/><path d="M840.71,55.84c-1-1.19.12-3.81,1.43-3.93a8.44,8.44,0,0,1,2.38-.24c5.24.24,10.35.36,15.47,1a89.94,89.94,0,0,0,20.35-.24c3.45-.36,7-.36,10.59-.48.48.6.83,1.31,1.31,2A7.66,7.66,0,0,1,890,55a117.92,117.92,0,0,1-17,1.54c-1.66,0-3.21.12-4.88.24-.59.71-1.31,1.19-1.42,1.9a15.57,15.57,0,0,0-.48,4.05c-.24,11.43-.48,22.85.59,34.27,1.07,11.07.6,22.26.72,33.32a8.12,8.12,0,0,1-1.19,5.48,4.06,4.06,0,0,1-4,.47,5.7,5.7,0,0,1-.83-2.14c-.12-3.69-.48-7.61-.24-11.3.48-6.31.48-12.5.48-18.81V61.67a5.23,5.23,0,0,0-.36-2.38,3.07,3.07,0,0,0-1.55-1.67,9.77,9.77,0,0,0-3.21-.59c-4.52-.12-9.16,0-13.8-.24A3.27,3.27,0,0,1,840.71,55.84Z" transform="translate(-28.04 -17.7)"/><path d="M904.26,115.7c-.12-10.36-.12-20.59-.12-30.94,0-5.12.12-10.36.24-15.47.12-4.05.23-8.22.35-12.26.12-3,.36-6,1.67-8.57.59-.36,1-.83,1.43-1a23.19,23.19,0,0,1,4-.48c10.59,0,21.19-1.19,31.78-1.55,1.31,0,2.61.12,4,.24a2.93,2.93,0,0,1,2.5,2.74,14.36,14.36,0,0,1,0,3.21c0,.84-1,1.67-1.55,1.55-6.18-.95-12.37-.59-18.68-.71a44.3,44.3,0,0,0-9.64.83c-2.38.59-4.88.59-6.9.95-1.31.83-2.14,1.79-1.9,2.86a66.79,66.79,0,0,1-.12,15.35,22.72,22.72,0,0,0,.12,4,32.19,32.19,0,0,1,.11,8.93,4.15,4.15,0,0,0,.48,2.38,2.22,2.22,0,0,0,1.67,1.55,15.09,15.09,0,0,0,3.21.23c6.78-.11,13.57-.35,20.11-.47a10.18,10.18,0,0,1,1.55,1.07,2,2,0,0,1-.83,2.74,11.28,11.28,0,0,1-4.76.83,38,38,0,0,0-9.76.36,71.79,71.79,0,0,1-8.33.59,3.42,3.42,0,0,0-2.26,3.57c0,7.62-.12,15.23-.12,22.85v4.52a19.61,19.61,0,0,0,1.66,1.55c6,.24,12.26.24,18.45,0a147.65,147.65,0,0,1,17.85,0,7.79,7.79,0,0,1,1.19,2.14,2.5,2.5,0,0,1-1.19,2.74,44.68,44.68,0,0,1-10.47,1.55c-3,.12-6,.23-8.93.23a23,23,0,0,0-8.09,1,8,8,0,0,1-2.38.35c-4.64.24-9.28.36-13.8.36-.72,0-1.43-.71-1.91-.95a2.42,2.42,0,0,1-.36-1C904.5,127.6,904.38,121.65,904.26,115.7Z" transform="translate(-28.04 -17.7)"/><path d="M963.76,126.64c0-2,.83-3.57,3.33-4.4,1.78.6,3.81,1.19,5.83,1.79s4.16,1.54,6.07,2.26c5.47.59,11,.24,16.06.12,4.05-1.79,4.05-1.79,5.83-4.76a17.6,17.6,0,0,1,.24-2.38c.6-5.83-1.78-10.59-5.35-15a32.31,32.31,0,0,0-9.4-7.61c-3-1.43-5.83-2.86-8.69-4.53a41.84,41.84,0,0,1-6.07-4c-5.24-4.52-6.9-10.24-5.83-16.9a46.35,46.35,0,0,1,4.64-13.09c2.26-4.64,6.19-6.78,11.19-6.78a25.12,25.12,0,0,1,7.26.59,51.87,51.87,0,0,0,10.35,1.43c2.86,1.31,5.59,2.5,8.33,3.69a2.5,2.5,0,0,1,1.31,1.9c.12.84-.12,1.07-1.67,2.5a87.6,87.6,0,0,1-17.37-3.57,23.85,23.85,0,0,0-5.6-1.19c-3.57-.36-6.3,1.31-8.44,3.93a12.72,12.72,0,0,0-1.55,2.85,31.11,31.11,0,0,0-2,13.57c.35,3,1.54,5.36,4.16,6.78,4.64,2.62,9.4,5.24,14.16,7.86a35.55,35.55,0,0,0,3.69,1.9c6.31,3,10,8.21,12.61,14.4,1.55,3.69,2,7.86,2.38,11.9a8.94,8.94,0,0,1-.59,3.1,15.78,15.78,0,0,1-6.54,8.09A23.45,23.45,0,0,1,989,135a72.92,72.92,0,0,1-19.15-3.45,35,35,0,0,1-3.69-1.78A3.45,3.45,0,0,1,963.76,126.64Z" transform="translate(-28.04 -17.7)"/></svg>